<svg width="100" height="100" viewBox="0 0 100 100" xmlns="http://www.w3.org/2000/svg">
  <defs>
    <linearGradient id="goldTop" x1="0%" y1="0%" x2="100%" y2="100%"><stop offset="0%" stop-color="#FFD700" /><stop offset="100%" stop-color="#B8860B" /></linearGradient>
    <linearGradient id="goldLeft" x1="100%" y1="0%" x2="0%" y2="100%"><stop offset="0%" stop-color="#DAA520" /><stop offset="100%" stop-color="#8B6508" /></linearGradient>
    <linearGradient id="goldRight" x1="0%" y1="100%" x2="100%" y2="0%"><stop offset="0%" stop-color="#FFEC8B" /><stop offset="100%" stop-color="#CD9B1D" /></linearGradient>
    <linearGradient id="goldBottom" x1="50%" y1="100%" x2="50%" y2="0%"><stop offset="0%" stop-color="#8B6508" /><stop offset="100%" stop-color="#FFD700" /></linearGradient>
    <linearGradient id="redGradient" x1="0%" y1="0%" x2="100%" y2="100%"><stop offset="0%" stop-color="#ff3333"/><stop offset="100%" stop-color="#660000"/></linearGradient>
    <linearGradient id="redGlow" x1="50%" y1="50%" r="50%"><stop offset="0%" stop-color="#ff0000" stop-opacity="0.8"/><stop offset="100%" stop-color="#000000" stop-opacity="0"/></linearGradient>
    <filter id="shadow" x="-20%" y="-20%" width="140%" height="140%"><feDropShadow dx="0" dy="4" stdDeviation="4" flood-color="#000" flood-opacity="0.8"/></filter>
    <filter id="iconShadow" x="-20%" y="-20%" width="140%" height="140%"><feDropShadow dx="0" dy="2" stdDeviation="2" flood-color="#2a0000" flood-opacity="0.9"/></filter>
    
  </defs>

  <g filter="url(#shadow)">
    <!-- Hexagon Low-poly background -->
    <polygon points="50,5 95,28 50,50" fill="url(#goldTop)" stroke="#B8860B" stroke-width="1.5" stroke-linejoin="round"/>
    <polygon points="5,28 50,5 50,50" fill="url(#goldLeft)" stroke="#DAA520" stroke-width="1.5" stroke-linejoin="round"/>
    <polygon points="95,28 95,72 50,50" fill="url(#goldRight)" stroke="#FFEC8B" stroke-width="1.5" stroke-linejoin="round"/>
    <polygon points="5,72 5,28 50,50" fill="#B8860B" stroke="#CD9B1D" stroke-width="1.5" stroke-linejoin="round"/>
    <polygon points="5,72 50,50 50,95" fill="url(#goldBottom)" stroke="#8B6508" stroke-width="1.5" stroke-linejoin="round"/>
    <polygon points="50,95 50,50 95,72" fill="#DAA520" stroke="#B8860B" stroke-width="1.5" stroke-linejoin="round"/>
  </g>

  <!-- Glowing aura -->
  <circle cx="50" cy="50" r="30" fill="url(#redGlow)" opacity="0.6" />

  <!-- 3D Poly Emblem -->
  <g filter="url(#iconShadow)">
    
        <!-- Low poly Snowflake -->
        <polygon points="50,20 55,45 45,45" fill="url(#redGradient)"/>
        <polygon points="50,80 55,55 45,55" fill="#aa0000"/>
        <polygon points="20,50 45,45 45,55" fill="#ff6666"/>
        <polygon points="80,50 55,45 55,55" fill="#770000"/>
        <polygon points="30,30 45,45 50,50" fill="#bbbbbb"/>
        <polygon points="70,70 55,55 50,50" fill="#dddddd"/>
        <polygon points="30,70 45,55 50,50" fill="#aaaaaa"/>
        <polygon points="70,30 55,45 50,50" fill="#cccccc"/>
    
  </g>
</svg>